<svg xmlns="http://www.w3.org/2000/svg" xmlns:xlink="http://www.w3.org/1999/xlink" width="1728" zoomAndPan="magnify" viewBox="0 0 1296 719.999996" height="960" preserveAspectRatio="xMidYMid meet" version="1.0"><defs><clipPath id="e2706d8e33"><path d="M 21 96.425781 L 1251 96.425781 L 1251 561 L 21 561 Z M 21 96.425781 " clip-rule="nonzero"/></clipPath></defs><g clip-path="url(#e2706d8e33)"><path fill="#ff0000" d="M 1012.109375 560.550781 L 97.25 560.550781 C 39.339844 560.550781 7.90625 516.238281 27.0625 461.589844 L 120.253906 195.527344 C 139.402344 140.867188 201.871094 96.5625 259.789062 96.5625 L 1174.648438 96.5625 C 1232.566406 96.5625 1263.992188 140.867188 1244.84375 195.527344 L 1151.644531 461.589844 C 1132.496094 516.238281 1070.027344 560.550781 1012.109375 560.550781 Z M 1012.109375 560.550781 " fill-opacity="1" fill-rule="nonzero"/></g><path fill="#ffffff" d="M 248.773438 378.667969 C 249.117188 380.320312 249.410156 381.902344 249.660156 383.394531 C 249.902344 384.875 250.03125 386.441406 250.03125 388.085938 C 250.03125 396.386719 247.703125 402.441406 243.050781 406.253906 C 240.558594 408.246094 237.53125 409.578125 233.96875 410.242188 C 230.421875 410.90625 226.40625 411.238281 221.929688 411.238281 C 214.636719 411.238281 208.582031 410.113281 203.761719 407.878906 C 198.960938 405.644531 195.398438 401.785156 193.089844 396.320312 C 188.113281 401.445312 182.269531 405.332031 175.550781 407.988281 C 168.847656 410.648438 161.601562 411.976562 153.800781 411.976562 C 143.183594 411.976562 133.453125 409.246094 124.589844 403.78125 C 115.730469 398.296875 108.6875 390.292969 103.46875 379.777344 C 98.246094 369.246094 95.640625 356.6875 95.640625 342.113281 C 95.640625 327.371094 98.375 314.695312 103.839844 304.078125 C 109.304688 293.472656 116.550781 285.429688 125.589844 279.964844 C 134.617188 274.480469 144.53125 271.730469 155.3125 271.730469 C 161.757812 271.730469 167.878906 272.820312 173.667969 274.980469 C 179.472656 277.121094 184.789062 280.28125 189.617188 284.433594 L 189.617188 225.980469 C 190.949219 225.664062 193.386719 225.34375 196.929688 225.019531 C 200.492188 224.679688 203.695312 224.503906 206.53125 224.503906 C 213.472656 224.503906 218.847656 225.167969 222.667969 226.496094 C 226.480469 227.824219 229.25 230.1875 230.976562 233.585938 C 232.722656 236.984375 233.597656 241.839844 233.597656 248.136719 L 233.597656 368.21875 C 233.597656 372.355469 234.171875 375.300781 235.332031 377.046875 C 236.515625 378.769531 238.75 379.628906 242.054688 379.628906 C 244.710938 379.628906 246.945312 379.316406 248.773438 378.667969 Z M 139.878906 341.855469 C 139.878906 349 141.070312 355.175781 143.460938 360.390625 C 145.871094 365.617188 149.230469 369.550781 153.542969 372.207031 C 157.871094 374.847656 162.679688 376.160156 167.980469 376.160156 C 172.117188 376.160156 176.003906 375.492188 179.648438 374.164062 C 183.3125 372.835938 186.636719 370.933594 189.617188 368.441406 L 189.617188 315.265625 C 183.3125 310.125 176.011719 307.550781 167.722656 307.550781 C 162.257812 307.550781 157.4375 308.878906 153.285156 311.539062 C 149.148438 314.179688 145.871094 318.109375 143.460938 323.355469 C 141.070312 328.578125 139.878906 334.746094 139.878906 341.855469 Z M 139.878906 341.855469 " fill-opacity="1" fill-rule="nonzero"/><path fill="#ffffff" d="M 289.042969 256.589844 C 280.917969 256.589844 274.695312 255.058594 270.394531 251.976562 C 266.082031 248.902344 263.933594 244.296875 263.933594 238.164062 C 263.933594 232.035156 266.082031 227.449219 270.394531 224.390625 C 274.695312 221.316406 280.917969 219.777344 289.042969 219.777344 C 296.988281 219.777344 303.15625 221.316406 307.542969 224.390625 C 311.945312 227.449219 314.152344 232.035156 314.152344 238.164062 C 314.152344 244.296875 311.945312 248.902344 307.542969 251.976562 C 303.15625 255.058594 296.988281 256.589844 289.042969 256.589844 Z M 299.234375 411.238281 C 292.089844 411.238281 286.160156 410.1875 281.433594 408.101562 C 276.726562 406.03125 273.136719 402.441406 270.652344 397.316406 C 268.160156 392.175781 266.921875 385.121094 266.921875 376.160156 L 266.921875 274.722656 C 269.066406 274.410156 271.660156 274.085938 274.714844 273.761719 C 277.789062 273.421875 280.742188 273.246094 283.578125 273.246094 C 290.519531 273.246094 295.890625 273.910156 299.714844 275.238281 C 303.527344 276.550781 306.304688 278.894531 308.058594 282.292969 C 309.804688 285.6875 310.679688 290.546875 310.679688 296.839844 L 310.679688 368.21875 C 310.679688 372.355469 311.289062 375.300781 312.527344 377.046875 C 313.78125 378.769531 316.054688 379.628906 319.359375 379.628906 C 322.183594 379.628906 324.34375 379.316406 325.820312 378.667969 C 326.308594 380.320312 326.640625 381.902344 326.816406 383.394531 C 326.984375 384.875 327.074219 386.441406 327.074219 388.085938 C 327.074219 396.386719 324.75 402.441406 320.097656 406.253906 C 317.605469 408.246094 314.632812 409.578125 311.160156 410.242188 C 307.691406 410.90625 303.710938 411.238281 299.234375 411.238281 Z M 299.234375 411.238281 " fill-opacity="1" fill-rule="nonzero"/><path fill="#ffffff" d="M 491.394531 378.667969 C 491.734375 380.320312 492.03125 381.902344 492.28125 383.394531 C 492.519531 384.875 492.648438 386.441406 492.648438 388.085938 C 492.648438 396.386719 490.324219 402.441406 485.671875 406.253906 C 483.179688 408.246094 480.148438 409.578125 476.585938 410.242188 C 473.042969 410.90625 469.027344 411.238281 464.546875 411.238281 C 457.253906 411.238281 451.199219 410.113281 446.382812 407.878906 C 441.582031 405.644531 438.015625 401.785156 435.710938 396.320312 C 430.734375 401.445312 424.890625 405.332031 418.167969 407.988281 C 411.46875 410.648438 404.21875 411.976562 396.417969 411.976562 C 385.804688 411.976562 376.074219 409.246094 367.210938 403.78125 C 358.347656 398.296875 351.304688 390.292969 346.089844 379.777344 C 340.863281 369.246094 338.261719 356.6875 338.261719 342.113281 C 338.261719 327.371094 340.992188 314.695312 346.457031 304.078125 C 351.921875 293.472656 359.171875 285.429688 368.207031 279.964844 C 377.238281 274.480469 387.152344 271.730469 397.933594 271.730469 C 404.378906 271.730469 410.496094 272.820312 416.285156 274.980469 C 422.09375 277.121094 427.410156 280.28125 432.238281 284.433594 L 432.238281 225.980469 C 433.566406 225.664062 436.003906 225.34375 439.550781 225.019531 C 443.113281 224.679688 446.316406 224.503906 449.152344 224.503906 C 456.09375 224.503906 461.464844 225.167969 465.289062 226.496094 C 469.101562 227.824219 471.871094 230.1875 473.59375 233.585938 C 475.339844 236.984375 476.21875 241.839844 476.21875 248.136719 L 476.21875 368.21875 C 476.21875 372.355469 476.789062 375.300781 477.953125 377.046875 C 479.132812 378.769531 481.367188 379.628906 484.671875 379.628906 C 487.332031 379.628906 489.566406 379.316406 491.394531 378.667969 Z M 382.5 341.855469 C 382.5 349 383.6875 355.175781 386.082031 360.390625 C 388.488281 365.617188 391.851562 369.550781 396.160156 372.207031 C 400.492188 374.847656 405.300781 376.160156 410.597656 376.160156 C 414.734375 376.160156 418.621094 375.492188 422.269531 374.164062 C 425.933594 372.835938 429.257812 370.933594 432.238281 368.441406 L 432.238281 315.265625 C 425.933594 310.125 418.632812 307.550781 410.339844 307.550781 C 404.875 307.550781 400.058594 308.878906 395.902344 311.539062 C 391.765625 314.179688 388.488281 318.109375 386.082031 323.355469 C 383.6875 328.578125 382.5 334.746094 382.5 341.855469 Z M 382.5 341.855469 " fill-opacity="1" fill-rule="nonzero"/><path fill="#ffffff" d="M 531.660156 256.589844 C 523.539062 256.589844 517.316406 255.058594 513.011719 251.976562 C 508.703125 248.902344 506.550781 244.296875 506.550781 238.164062 C 506.550781 232.035156 508.703125 227.449219 513.011719 224.390625 C 517.316406 221.316406 523.539062 219.777344 531.660156 219.777344 C 539.609375 219.777344 545.777344 221.316406 550.160156 224.390625 C 554.566406 227.449219 556.769531 232.035156 556.769531 238.164062 C 556.769531 244.296875 554.566406 248.902344 550.160156 251.976562 C 545.777344 255.058594 539.609375 256.589844 531.660156 256.589844 Z M 541.851562 411.238281 C 534.707031 411.238281 528.78125 410.1875 524.054688 408.101562 C 519.347656 406.03125 515.753906 402.441406 513.273438 397.316406 C 510.78125 392.175781 509.542969 385.121094 509.542969 376.160156 L 509.542969 274.722656 C 511.683594 274.410156 514.277344 274.085938 517.332031 273.761719 C 520.40625 273.421875 523.363281 273.246094 526.195312 273.246094 C 533.136719 273.246094 538.511719 273.910156 542.332031 275.238281 C 546.144531 276.550781 548.925781 278.894531 550.679688 282.292969 C 552.421875 285.6875 553.300781 290.546875 553.300781 296.839844 L 553.300781 368.21875 C 553.300781 372.355469 553.910156 375.300781 555.144531 377.046875 C 556.402344 378.769531 558.671875 379.628906 561.976562 379.628906 C 564.800781 379.628906 566.960938 379.316406 568.441406 378.667969 C 568.929688 380.320312 569.261719 381.902344 569.4375 383.394531 C 569.601562 384.875 569.695312 386.441406 569.695312 388.085938 C 569.695312 396.386719 567.367188 402.441406 562.714844 406.253906 C 560.222656 408.246094 557.25 409.578125 553.78125 410.242188 C 550.308594 410.90625 546.332031 411.238281 541.851562 411.238281 Z M 541.851562 411.238281 " fill-opacity="1" fill-rule="nonzero"/><path fill="#ffffff" d="M 666.144531 271.730469 C 676.925781 271.730469 686.746094 274.34375 695.609375 279.558594 C 704.472656 284.785156 711.507812 292.539062 716.730469 302.824219 C 721.949219 313.089844 724.558594 325.523438 724.558594 340.117188 C 724.558594 355.035156 721.863281 367.925781 716.472656 378.78125 C 711.101562 389.636719 703.855469 397.890625 694.722656 403.519531 C 685.613281 409.152344 675.597656 411.976562 664.667969 411.976562 C 657.695312 411.976562 651.09375 410.769531 644.875 408.359375 C 638.671875 405.949219 633.167969 402.433594 628.367188 397.796875 C 626.6875 402.109375 623.863281 405.21875 619.875 407.140625 C 615.90625 409.03125 610.441406 409.984375 603.480469 409.984375 C 600.671875 409.984375 597.480469 409.855469 593.914062 409.613281 C 590.34375 409.363281 587.90625 409.070312 586.605469 408.726562 L 586.605469 225.757812 C 588.746094 225.417969 591.386719 225.121094 594.542969 224.871094 C 597.691406 224.632812 600.671875 224.503906 603.480469 224.503906 C 610.441406 224.503906 615.785156 225.167969 619.503906 226.496094 C 623.242188 227.824219 625.984375 230.152344 627.738281 233.476562 C 629.484375 236.78125 630.363281 241.664062 630.363281 248.136719 L 630.363281 284.175781 C 634.988281 280.039062 640.367188 276.9375 646.5 274.871094 C 652.628906 272.785156 659.171875 271.730469 666.144531 271.730469 Z M 652.222656 376.160156 C 657.6875 376.160156 662.535156 374.847656 666.769531 372.207031 C 671 369.550781 674.3125 365.617188 676.703125 360.390625 C 679.113281 355.175781 680.324219 349 680.324219 341.855469 C 680.324219 334.394531 679.113281 328.109375 676.703125 322.984375 C 674.3125 317.84375 671 313.992188 666.769531 311.425781 C 662.535156 308.84375 657.6875 307.550781 652.222656 307.550781 C 643.921875 307.550781 636.640625 310.125 630.363281 315.265625 L 630.363281 368.441406 C 636.640625 373.59375 643.921875 376.160156 652.222656 376.160156 Z M 652.222656 376.160156 " fill-opacity="1" fill-rule="nonzero"/><path fill="#ffffff" d="M 848.617188 273.246094 C 855.578125 273.246094 860.921875 273.910156 864.644531 275.238281 C 868.382812 276.550781 871.113281 278.859375 872.839844 282.179688 C 874.585938 285.503906 875.460938 290.398438 875.460938 296.839844 L 875.460938 383.617188 C 875.460938 408.15625 869.238281 426.230469 856.816406 437.824219 C 844.378906 449.421875 825.730469 455.21875 800.871094 455.21875 C 791.933594 455.21875 783.773438 454.386719 776.390625 452.742188 C 769.003906 451.089844 762.820312 449.023438 757.851562 446.539062 C 754.03125 444.710938 751.132812 442.597656 749.136719 440.1875 C 747.160156 437.769531 746.183594 434.917969 746.183594 431.621094 C 746.183594 425.640625 749.664062 417.757812 756.632812 407.988281 C 761.921875 411.625 768.339844 414.820312 775.871094 417.554688 C 783.421875 420.285156 791.09375 421.652344 798.878906 421.652344 C 809.160156 421.652344 816.953125 419.25 822.25 414.453125 C 827.570312 409.652344 830.632812 402.035156 831.445312 391.59375 C 826.8125 394.898438 821.476562 397.417969 815.421875 399.164062 C 809.363281 400.917969 802.773438 401.785156 795.664062 401.785156 C 780.246094 401.785156 768.15625 397.269531 759.367188 388.234375 C 750.578125 379.207031 746.183594 364.65625 746.183594 344.585938 L 746.183594 274.464844 C 748.324219 274.148438 750.964844 273.863281 754.121094 273.613281 C 757.269531 273.375 760.179688 273.246094 762.835938 273.246094 C 769.796875 273.246094 775.179688 273.910156 778.972656 275.238281 C 782.785156 276.550781 785.566406 278.859375 787.320312 282.179688 C 789.0625 285.503906 789.941406 290.398438 789.941406 296.839844 L 789.941406 340.378906 C 789.941406 357.269531 796.890625 365.707031 810.804688 365.707031 C 814.792969 365.707031 818.566406 364.96875 822.140625 363.492188 C 825.703125 361.996094 828.898438 360.003906 831.703125 357.511719 L 831.703125 274.464844 C 833.863281 274.148438 836.515625 273.863281 839.644531 273.613281 C 842.792969 273.375 845.78125 273.246094 848.617188 273.246094 Z M 848.617188 273.246094 " fill-opacity="1" fill-rule="nonzero"/><path fill="#ffffff" d="M 999.492188 366.707031 C 1005.300781 373.5 1008.207031 380.054688 1008.207031 386.351562 C 1008.207031 389.847656 1007.488281 392.960938 1006.066406 395.691406 C 1004.660156 398.425781 1002.714844 400.707031 1000.230469 402.523438 C 996.4375 405.507812 991.425781 407.824219 985.203125 409.464844 C 979 411.136719 972.738281 411.976562 966.441406 411.976562 C 933.109375 411.976562 916.445312 395.066406 916.445312 361.242188 L 916.445312 308.804688 L 892.589844 308.804688 C 892.265625 306.957031 892.019531 304.632812 891.851562 301.828125 C 891.675781 299.019531 891.59375 296.535156 891.59375 294.367188 C 891.59375 289.402344 892.046875 285.597656 892.960938 282.957031 C 893.863281 280.296875 895.515625 278.433594 897.90625 277.34375 C 900.316406 276.265625 903.851562 275.71875 908.507812 275.71875 L 916.445312 275.71875 L 916.445312 262.796875 C 916.445312 256.5 917.265625 251.523438 918.917969 247.875 C 920.589844 244.238281 923.285156 241.628906 927.007812 240.046875 C 930.746094 238.480469 935.851562 237.683594 942.332031 237.683594 C 944.8125 237.683594 947.796875 237.816406 951.265625 238.054688 C 954.738281 238.304688 957.636719 238.597656 959.980469 238.941406 L 959.980469 275.71875 L 1003 275.71875 C 1003.3125 277.371094 1003.601562 279.652344 1003.847656 282.550781 C 1004.089844 285.457031 1004.21875 288.070312 1004.21875 290.378906 C 1004.21875 295.355469 1003.757812 299.128906 1002.851562 301.714844 C 1001.9375 304.28125 1000.277344 306.101562 997.867188 307.179688 C 995.476562 308.269531 991.960938 308.804688 987.304688 308.804688 L 959.980469 308.804688 L 959.980469 356.035156 C 959.980469 369.457031 965.863281 376.160156 977.632812 376.160156 C 981.769531 376.160156 985.738281 375.300781 989.558594 373.574219 C 993.371094 371.828125 996.6875 369.539062 999.492188 366.707031 Z M 999.492188 366.707031 " fill-opacity="1" fill-rule="nonzero"/><path fill="#ffffff" d="M 1141.429688 364.488281 C 1144.429688 367.128906 1146.671875 370.160156 1148.148438 373.574219 C 1149.644531 376.972656 1150.402344 380.40625 1150.402344 383.875 C 1150.402344 392.664062 1145.507812 399.21875 1135.742188 403.519531 C 1130.914062 406.011719 1124.933594 408.035156 1117.796875 409.613281 C 1110.679688 411.183594 1102.988281 411.976562 1094.714844 411.976562 C 1079.796875 411.976562 1066.855469 409.117188 1055.90625 403.410156 C 1044.976562 397.675781 1036.605469 389.554688 1030.796875 379.039062 C 1025.007812 368.503906 1022.121094 356.199219 1022.121094 342.113281 C 1022.121094 327.195312 1025.183594 314.484375 1031.3125 303.96875 C 1037.445312 293.433594 1045.84375 285.429688 1056.535156 279.964844 C 1067.214844 274.480469 1079.4375 271.730469 1093.203125 271.730469 C 1104.648438 271.730469 1114.960938 273.484375 1124.148438 276.976562 C 1133.351562 280.445312 1140.652344 285.503906 1146.042969 292.152344 C 1151.433594 298.78125 1154.132812 306.644531 1154.132812 315.746094 C 1154.132812 328.671875 1148.980469 338.585938 1138.695312 345.472656 C 1128.429688 352.339844 1112.929688 355.777344 1092.207031 355.777344 C 1083.269531 355.777344 1073.984375 354.871094 1064.363281 353.042969 C 1068.664062 369.464844 1080.769531 377.671875 1100.660156 377.671875 C 1109.273438 377.671875 1116.890625 376.398438 1123.519531 373.832031 C 1130.164062 371.246094 1136.128906 368.136719 1141.429688 364.488281 Z M 1093.941406 302.566406 C 1089.308594 302.566406 1084.839844 303.523438 1080.535156 305.445312 C 1076.226562 307.347656 1072.535156 310.28125 1069.460938 314.269531 C 1066.402344 318.238281 1064.371094 323.207031 1063.367188 329.1875 C 1070.503906 330.519531 1078.21875 331.183594 1086.519531 331.183594 C 1095.945312 331.183594 1102.894531 330.101562 1107.382812 327.933594 C 1111.859375 325.773438 1114.101562 322.042969 1114.101562 316.746094 C 1114.101562 312.441406 1112.230469 309.007812 1108.492188 306.441406 C 1104.769531 303.855469 1099.921875 302.566406 1093.941406 302.566406 Z M 1093.941406 302.566406 " fill-opacity="1" fill-rule="nonzero"/></svg>